<svg width="647" height="215" viewBox="0 0 647 215" fill="none" xmlns="http://www.w3.org/2000/svg">
<g clip-path="url(#clip0_786_2)">
<path d="M28.63 119.39C28.63 121.5 29.47 123.15 31.16 124.35C32.93 125.55 35.65 126.86 39.34 128.26C43.75 130.07 47.36 131.82 50.17 133.53C53.06 135.23 55.55 137.89 57.63 141.5C59.8 145.11 60.88 149.82 60.88 155.64C60.88 174.29 51.17 183.62 31.76 183.62C28.55 183.62 24.62 183.27 19.97 182.57C15.4 181.87 11.22 180.97 7.45001 179.86C7.61001 177.75 7.93001 174.7 8.41001 170.69C8.97001 166.58 9.49001 163.52 9.97001 161.52C12.78 162.02 16.99 162.62 22.61 163.32C28.31 164.02 32.6 164.37 35.49 164.37C37.17 164.37 38.18 164.22 38.5 163.92C38.98 163.52 39.34 162.87 39.58 161.96C39.9 160.96 40.06 160.11 40.06 159.4C40.06 157.39 39.3 155.89 37.77 154.89C36.25 153.79 33.64 152.48 29.95 150.98C25.54 149.27 21.89 147.52 19 145.72C16.11 143.91 13.58 141.11 11.42 137.3C9.25001 133.49 8.17001 128.48 8.17001 122.26C8.17001 117.85 8.97001 113.54 10.58 109.33C12.18 105.02 13.83 102.11 15.51 100.61C16.79 99.51 19.44 98.45 23.45 97.45C27.46 96.45 31.23 95.95 34.76 95.95C43.75 95.95 51.09 97 56.78 99.11C56.7 101.11 56.42 103.87 55.94 107.38C55.54 110.89 55.1 114.1 54.62 117.01L51.85 116.86C41.42 115.96 34.76 115.51 31.87 115.51C30.67 115.51 29.98 115.56 29.82 115.66C29.5 115.86 29.22 116.31 28.98 117.01C28.74 117.71 28.62 118.51 28.62 119.42V119.39H28.63Z" fill="#0D0F1E"/>
<path d="M80.46 104.2C77.73 104.2 75.37 103.05 73.36 100.74C71.43 98.43 70.47 95.68 70.47 92.47C70.47 89.26 71.43 86.5 73.36 84.2C75.37 81.89 77.73 80.74 80.46 80.74C83.19 80.74 85.51 81.89 87.44 84.2C89.37 86.51 90.33 89.26 90.33 92.47C90.33 95.68 89.37 98.44 87.44 100.74C85.51 103.05 83.19 104.2 80.46 104.2ZM70.11 112.77H90.69V181.96H70.11V112.77Z" fill="#0D0F1E"/>
<path d="M154.45 117.14C155.17 118.24 155.69 121 156.01 125.41C156.41 129.82 156.61 136.54 156.61 145.56V181.96H136.03V139.7C136.03 136.49 135.83 134.49 135.43 133.68C134.79 132.68 133.3 132.18 130.98 132.18C129.86 132.18 129.01 132.23 128.45 132.33C126.2 132.43 123.88 133.08 121.47 134.29V181.97H100.89V112.78H117.62L119.91 124.36C125.69 115.64 132.59 111.27 140.61 111.27C143.5 111.27 146.19 111.77 148.67 112.77C151.24 113.77 153.16 115.23 154.45 117.13V117.14Z" fill="#0D0F1E"/>
<path d="M199.1 181.96L197.17 172.48C193.48 180 188.34 183.76 181.77 183.76C176.39 183.76 171.98 181.91 168.53 178.19C165.16 174.38 163.48 169.07 163.48 162.25C163.48 158.04 164.44 154.38 166.37 151.27C168.38 148.06 171.1 145.81 174.55 144.5C179.04 142.9 185.98 141.99 195.37 141.79C195.37 135.17 195.13 131.66 194.65 131.26C194.25 130.86 192.97 130.66 190.8 130.66C189.44 130.66 187.55 130.76 185.14 130.96C181.29 131.16 176.07 131.71 169.49 132.61C168.85 127.19 168.37 121.38 168.05 115.16C172.3 114.06 176.76 113.15 181.41 112.45C186.06 111.65 190.24 111.25 193.93 111.25C200.35 111.25 205.16 112.6 208.37 115.31C211.58 117.92 213.66 121.38 214.63 125.69C215.59 130 216.03 135.47 215.95 142.09L215.83 164.2L216.19 181.95H199.1V181.96ZM188.75 166.93C190.84 166.93 193.04 166.43 195.37 165.43V154.3H194.41C188.47 154.3 185.18 154.7 184.54 155.5C184.14 156 183.82 156.75 183.58 157.76C183.42 158.76 183.34 159.72 183.34 160.62C183.34 163.03 183.78 164.68 184.66 165.58C185.54 166.48 186.91 166.93 188.75 166.93Z" fill="#0D0F1E"/>
<path d="M276.99 118.49C273.62 113.68 269.05 111.27 263.27 111.27C259.1 111.27 255.37 112.38 252.08 114.58C248.87 116.79 246.22 119.75 244.14 123.46L242.09 112.78H225.24V214.87L245.82 213.81V181.66C249.03 181.86 251.32 181.96 252.68 181.96C257.33 181.96 261.83 181.41 266.16 180.31C270.57 179.21 273.66 177.75 275.43 175.95C277.19 174.14 278.76 170.48 280.12 164.97C281.17 160.65 281.82 155.39 282.06 149.18C282.13 147.31 282.17 145.35 282.17 143.31C282.17 131.48 280.44 123.21 276.99 118.49ZM260.38 156.85C259.98 160.56 259.34 162.81 258.46 163.61C257.98 164.12 256.37 164.37 253.64 164.37C251.72 164.37 250.23 164.32 249.19 164.22L245.82 163.77V130.37C246.2 130.26 246.59 130.16 246.99 130.08C248.74 129.67 250.59 129.47 252.56 129.47C255.93 129.47 258.18 130.83 259.3 133.53C260.42 136.24 260.99 140.4 260.99 146.02C260.99 149.43 260.78 153.04 260.38 156.85Z" fill="#0D0F1E"/>
<path d="M315.75 153.54C315.75 155.34 315.79 157.25 315.87 159.25C315.95 161.16 316.19 162.36 316.59 162.86C317.15 163.56 319.12 163.91 322.49 163.91L326.58 163.76C327.3 168.57 327.66 174.14 327.66 180.45C326.14 181.15 323.89 181.8 320.92 182.41C318.03 183.01 315.26 183.31 312.62 183.31C307.08 183.31 302.79 181.81 299.74 178.8C296.77 175.69 295.29 170.93 295.29 164.51V127.51H286.26V113.82L295.29 112.77L300.71 96.23L315.75 95.18V112.78H328.51V127.52H315.75V153.54Z" fill="#0D0F1E"/>
<path d="M345.37 104.2C342.64 104.2 340.27 103.05 338.27 100.74C336.35 98.43 335.38 95.68 335.38 92.47C335.38 89.26 336.34 86.5 338.27 84.2C340.28 81.89 342.64 80.74 345.37 80.74C348.1 80.74 350.42 81.89 352.35 84.2C354.28 86.51 355.24 89.26 355.24 92.47C355.24 95.68 354.28 98.44 352.35 100.74C350.42 103.05 348.1 104.2 345.37 104.2ZM335.02 112.77H355.6V181.96H335.02V112.77Z" fill="#0D0F1E"/>
<path d="M424.66 181.96H402.27L390.84 153.83C389.72 150.92 388.23 149.07 386.39 148.26V181.95H365.81V91.7L386.39 90.65V141.94C388.31 140.94 389.96 138.88 391.32 135.77L401.55 112.76L424.06 112.61L412.39 136.07C410.54 139.78 408.54 142.74 406.37 144.94C408.22 147.45 410.3 151.26 412.63 156.37L424.67 181.94V181.96H424.66Z" fill="#0D0F1E"/>
<path d="M469.84 163.16H449.86L446.25 181.96H424.11L446.25 96.23H474.53L495.71 181.96H473.45L469.84 163.16ZM459.73 114.73L452.63 146.47H466.95L460.21 114.73H459.73Z" fill="#0D0F1E"/>
<path d="M529.38 95.78C535.88 95.78 541.37 96.53 545.87 98.04C550.36 99.54 553.93 102.45 556.58 106.76C559.31 110.97 560.67 117.04 560.67 124.96C560.67 128.47 560.23 132.08 559.35 135.79C558.55 139.4 557.5 142.56 556.22 145.26C555.02 147.97 553.93 149.72 552.97 150.52C551.85 151.52 549.36 152.33 545.51 152.93C541.66 153.43 537.13 153.68 531.91 153.68C530.06 153.68 527.22 153.58 523.37 153.38V181.96H501.71V96.23C510.13 95.93 519.36 95.78 529.39 95.78H529.38ZM538.41 134.43C539.21 133.13 539.61 130.52 539.61 126.61C539.61 121.5 538.73 117.89 536.96 115.78C535.28 113.68 532.31 112.62 528.05 112.62C526.6 112.62 525.04 112.77 523.36 113.07V135.93C524.16 136.03 525.73 136.08 528.05 136.08C534.23 136.08 537.68 135.53 538.4 134.43H538.41Z" fill="#0D0F1E"/>
<path d="M596.02 95.78C602.52 95.78 608.01 96.53 612.51 98.04C617 99.54 620.57 102.45 623.22 106.76C625.95 110.97 627.31 117.04 627.31 124.96C627.31 128.47 626.87 132.08 625.99 135.79C625.19 139.4 624.14 142.56 622.86 145.26C621.66 147.97 620.57 149.72 619.61 150.52C618.49 151.52 616 152.33 612.15 152.93C608.3 153.43 603.77 153.68 598.55 153.68C596.7 153.68 593.86 153.58 590.01 153.38V181.96H568.35V96.23C576.78 95.93 586 95.78 596.03 95.78H596.02ZM605.05 134.43C605.85 133.13 606.25 130.52 606.25 126.61C606.25 121.5 605.37 117.89 603.6 115.78C601.92 113.68 598.95 112.62 594.69 112.62C593.25 112.62 591.68 112.77 590 113.07V135.93C590.8 136.03 592.37 136.08 594.69 136.08C600.87 136.08 604.32 135.53 605.04 134.43H605.05Z" fill="#0D0F1E"/>
<path d="M261.27 207.36L258.73 199.14C258.66 198.9 258.58 198.61 258.49 198.29C258.41 197.96 258.33 197.61 258.25 197.25C258.09 198.01 257.93 198.65 257.76 199.15L255.22 207.36H261.27ZM265.83 214.86H264.14C263.94 214.86 263.79 214.8 263.67 214.68C263.55 214.56 263.46 214.4 263.4 214.22L261.89 209.34H254.64L253.13 214.22C253.08 214.39 253 214.54 252.87 214.67C252.74 214.8 252.58 214.87 252.4 214.87H250.71L257.18 194.66H259.39L265.85 214.87H265.83V214.86Z" fill="#0D0F1E"/>
<path d="M272 205.15C272.62 205.15 273.17 205.05 273.65 204.84C274.13 204.63 274.53 204.35 274.86 203.98C275.19 203.6 275.44 203.16 275.6 202.64C275.77 202.12 275.85 201.55 275.85 200.93C275.85 199.64 275.53 198.64 274.89 197.91C274.26 197.19 273.3 196.82 272 196.82H269.4V205.14H272V205.15ZM272 194.68C273.02 194.68 273.91 194.83 274.66 195.13C275.42 195.42 276.05 195.84 276.54 196.39C277.04 196.93 277.4 197.59 277.65 198.36C277.9 199.13 278.02 199.99 278.02 200.94C278.02 201.89 277.89 202.74 277.63 203.52C277.37 204.3 276.98 204.97 276.47 205.54C275.97 206.1 275.34 206.54 274.59 206.86C273.85 207.17 272.98 207.32 272.01 207.32H269.41V214.88H267.23V194.67H272V194.68Z" fill="#0D0F1E"/>
<path d="M284.18 205.15C284.8 205.15 285.35 205.05 285.83 204.84C286.31 204.63 286.71 204.35 287.04 203.98C287.37 203.6 287.62 203.16 287.78 202.64C287.94 202.12 288.03 201.55 288.03 200.93C288.03 199.64 287.71 198.64 287.07 197.91C286.44 197.19 285.47 196.82 284.18 196.82H281.58V205.14H284.18V205.15ZM284.18 194.68C285.2 194.68 286.09 194.83 286.84 195.13C287.6 195.42 288.23 195.84 288.73 196.39C289.23 196.93 289.59 197.59 289.83 198.36C290.08 199.13 290.2 199.99 290.2 200.94C290.2 201.89 290.07 202.74 289.8 203.52C289.54 204.3 289.15 204.97 288.64 205.54C288.14 206.1 287.51 206.54 286.75 206.86C286.01 207.17 285.14 207.32 284.17 207.32H281.57V214.88H279.39V194.67H284.18V194.68Z" fill="#0D0F1E"/>
<path d="M301.16 197.62C301.09 197.76 301.02 197.87 300.93 197.94C300.85 198.01 300.76 198.04 300.65 198.04C300.52 198.04 300.37 197.96 300.2 197.8C300.03 197.64 299.81 197.47 299.55 197.28C299.29 197.08 298.98 196.9 298.61 196.74C298.25 196.58 297.81 196.5 297.29 196.5C296.8 196.5 296.37 196.58 295.99 196.75C295.62 196.91 295.31 197.13 295.05 197.41C294.8 197.69 294.61 198.03 294.49 198.41C294.36 198.79 294.3 199.2 294.3 199.64C294.3 200.2 294.41 200.67 294.63 201.05C294.86 201.42 295.15 201.73 295.51 201.99C295.88 202.25 296.29 202.48 296.75 202.68C297.22 202.87 297.69 203.06 298.17 203.27C298.66 203.48 299.13 203.71 299.59 203.98C300.06 204.23 300.47 204.56 300.83 204.95C301.2 205.35 301.49 205.83 301.71 206.4C301.94 206.97 302.05 207.68 302.05 208.52C302.05 209.36 301.93 210.23 301.69 211.01C301.45 211.78 301.1 212.45 300.63 213.03C300.17 213.6 299.6 214.05 298.93 214.38C298.26 214.71 297.5 214.87 296.64 214.87C295.59 214.87 294.63 214.63 293.78 214.16C292.92 213.68 292.19 213.04 291.58 212.23L292.21 210.93C292.27 210.83 292.34 210.74 292.42 210.68C292.51 210.61 292.61 210.57 292.71 210.57C292.81 210.57 292.92 210.62 293.04 210.72C293.17 210.81 293.31 210.94 293.47 211.09C293.63 211.24 293.81 211.4 294.01 211.58C294.21 211.76 294.44 211.92 294.7 212.07C294.96 212.22 295.26 212.35 295.59 212.45C295.92 212.54 296.29 212.59 296.71 212.59C297.23 212.59 297.69 212.5 298.1 212.32C298.51 212.14 298.85 211.89 299.13 211.57C299.42 211.24 299.63 210.85 299.78 210.4C299.93 209.95 300.01 209.45 300.01 208.89C300.01 208.28 299.9 207.78 299.67 207.4C299.45 207 299.16 206.68 298.8 206.41C298.44 206.15 298.03 205.92 297.56 205.75C297.09 205.56 296.62 205.37 296.14 205.19C295.66 204.99 295.18 204.77 294.72 204.51C294.25 204.26 293.84 203.93 293.48 203.52C293.12 203.12 292.83 202.61 292.6 202.01C292.38 201.4 292.27 200.65 292.27 199.75C292.27 199.04 292.38 198.35 292.6 197.68C292.83 197.01 293.15 196.42 293.57 195.9C294 195.38 294.52 194.97 295.14 194.66C295.76 194.35 296.48 194.19 297.28 194.19C298.18 194.19 299 194.37 299.74 194.73C300.48 195.09 301.14 195.6 301.7 196.28L301.17 197.58V197.62H301.16Z" fill="#0D0F1E"/>
<path d="M325.47 204.77C325.47 206.28 325.28 207.66 324.89 208.9C324.51 210.14 323.96 211.2 323.27 212.09C322.57 212.97 321.73 213.66 320.74 214.15C319.76 214.63 318.68 214.87 317.49 214.87H311.45V194.66H317.49C318.68 194.66 319.76 194.9 320.74 195.39C321.73 195.87 322.57 196.56 323.27 197.45C323.97 198.33 324.51 199.4 324.89 200.64C325.27 201.88 325.47 203.26 325.47 204.77ZM323.23 204.77C323.23 203.53 323.09 202.42 322.82 201.44C322.55 200.46 322.17 199.64 321.67 198.96C321.17 198.28 320.57 197.77 319.86 197.41C319.15 197.05 318.36 196.87 317.49 196.87H313.64V212.65H317.49C318.36 212.65 319.15 212.47 319.86 212.11C320.57 211.75 321.17 211.24 321.67 210.57C322.17 209.89 322.55 209.07 322.82 208.09C323.09 207.11 323.23 206 323.23 204.76V204.77Z" fill="#0D0F1E"/>
<path d="M337.59 212.64V214.87H327.62V194.66H337.58V196.89H329.81V203.6H336.11V205.74H329.81V212.64H337.6H337.59Z" fill="#0D0F1E"/>
<path d="M356.98 212.64V214.87H347.01V194.66H356.97V196.89H349.2V203.6H355.5V205.74H349.2V212.64H356.99H356.98Z" fill="#0D0F1E"/>
<path d="M368.98 197.62C368.91 197.76 368.84 197.87 368.75 197.94C368.68 198.01 368.58 198.04 368.47 198.04C368.34 198.04 368.19 197.96 368.02 197.8C367.85 197.64 367.63 197.47 367.37 197.28C367.11 197.08 366.8 196.9 366.43 196.74C366.07 196.58 365.63 196.5 365.11 196.5C364.62 196.5 364.19 196.58 363.81 196.75C363.44 196.91 363.13 197.13 362.87 197.41C362.62 197.69 362.43 198.03 362.31 198.41C362.18 198.79 362.12 199.2 362.12 199.64C362.12 200.2 362.23 200.67 362.45 201.05C362.68 201.42 362.97 201.73 363.33 201.99C363.7 202.25 364.11 202.48 364.57 202.68C365.04 202.87 365.51 203.06 365.99 203.27C366.48 203.48 366.95 203.71 367.41 203.98C367.88 204.23 368.29 204.56 368.65 204.95C369.02 205.35 369.31 205.83 369.53 206.4C369.76 206.97 369.87 207.68 369.87 208.52C369.87 209.36 369.75 210.23 369.51 211.01C369.27 211.78 368.92 212.45 368.45 213.03C367.99 213.6 367.42 214.05 366.75 214.38C366.08 214.71 365.32 214.87 364.46 214.87C363.41 214.87 362.45 214.63 361.59 214.16C360.73 213.68 360 213.04 359.39 212.23L360.02 210.93C360.08 210.83 360.15 210.74 360.23 210.68C360.32 210.61 360.42 210.57 360.52 210.57C360.62 210.57 360.73 210.62 360.85 210.72C360.98 210.81 361.12 210.94 361.28 211.09C361.44 211.24 361.62 211.4 361.82 211.58C362.02 211.76 362.25 211.92 362.51 212.07C362.77 212.22 363.07 212.35 363.4 212.45C363.73 212.54 364.1 212.59 364.52 212.59C365.04 212.59 365.5 212.5 365.91 212.32C366.32 212.14 366.66 211.89 366.94 211.57C367.23 211.24 367.44 210.85 367.59 210.4C367.74 209.95 367.82 209.45 367.82 208.89C367.82 208.28 367.71 207.78 367.48 207.4C367.26 207 366.97 206.68 366.61 206.41C366.25 206.15 365.84 205.92 365.37 205.75C364.9 205.56 364.43 205.37 363.95 205.19C363.47 204.99 362.99 204.77 362.53 204.51C362.06 204.26 361.65 203.93 361.29 203.52C360.93 203.12 360.64 202.61 360.41 202.01C360.19 201.4 360.08 200.65 360.08 199.75C360.08 199.04 360.19 198.35 360.41 197.68C360.64 197.01 360.96 196.42 361.38 195.9C361.81 195.38 362.33 194.97 362.95 194.66C363.57 194.35 364.29 194.19 365.09 194.19C365.99 194.19 366.81 194.37 367.55 194.73C368.29 195.09 368.95 195.6 369.51 196.28L368.98 197.58V197.62Z" fill="#0D0F1E"/>
<path d="M408.76 194.66V214.87H406.84V200.02C406.84 199.82 406.84 199.61 406.85 199.39C406.87 199.16 406.88 198.93 406.9 198.7L401.35 211.33C401.18 211.75 400.91 211.96 400.56 211.96H400.24C399.89 211.96 399.62 211.75 399.45 211.33L393.79 198.64C393.84 199.14 393.86 199.6 393.86 200.02V214.87H391.94V194.66H393.55C393.75 194.66 393.9 194.68 394 194.73C394.11 194.78 394.21 194.91 394.3 195.13L399.88 207.57C399.97 207.8 400.06 208.03 400.14 208.28C400.23 208.52 400.31 208.77 400.39 209.03C400.47 208.78 400.54 208.53 400.63 208.28C400.71 208.03 400.8 207.79 400.9 207.56L406.38 195.14C406.47 194.92 406.57 194.79 406.67 194.74C406.78 194.69 406.94 194.67 407.13 194.67H408.76V194.66Z" fill="#0D0F1E"/>
<path d="M417.62 212.47C418.29 212.47 418.89 212.33 419.41 212.05C419.94 211.77 420.38 211.37 420.74 210.86C421.11 210.35 421.39 209.75 421.57 209.04C421.77 208.33 421.86 207.56 421.86 206.71V194.43H424.04V206.71C424.04 207.87 423.89 208.96 423.59 209.95C423.3 210.95 422.87 211.81 422.31 212.54C421.76 213.26 421.09 213.83 420.29 214.25C419.49 214.66 418.6 214.87 417.61 214.87C416.62 214.87 415.72 214.66 414.92 214.25C414.12 213.84 413.45 213.27 412.89 212.54C412.33 211.81 411.9 210.94 411.6 209.95C411.31 208.95 411.16 207.87 411.16 206.71V194.43H413.34V206.7C413.34 207.55 413.43 208.32 413.62 209.03C413.82 209.74 414.09 210.34 414.45 210.85C414.82 211.36 415.27 211.76 415.79 212.05C416.32 212.33 416.92 212.47 417.59 212.47H417.62Z" fill="#0D0F1E"/>
<path d="M435.62 212.57V214.87H426.45V194.66H428.63V212.57H435.62Z" fill="#0D0F1E"/>
<path d="M448.59 207.36L446.05 199.14C445.97 198.9 445.9 198.61 445.81 198.29C445.73 197.96 445.65 197.61 445.57 197.25C445.41 198.01 445.25 198.65 445.08 199.15L442.54 207.36H448.59ZM453.15 214.86H451.46C451.26 214.86 451.11 214.8 450.99 214.68C450.87 214.56 450.78 214.4 450.72 214.22L449.21 209.34H441.95L440.44 214.22C440.4 214.39 440.31 214.54 440.18 214.67C440.05 214.8 439.89 214.87 439.71 214.87H438.02L444.48 194.66H446.69L453.15 214.87V214.86Z" fill="#0D0F1E"/>
<path d="M467.9 210.48C468.02 210.48 468.13 210.54 468.22 210.66L469.09 211.83C468.43 212.79 467.62 213.54 466.68 214.07C465.74 214.61 464.6 214.87 463.26 214.87C462.1 214.87 461.05 214.62 460.1 214.12C459.15 213.61 458.34 212.91 457.67 212C457 211.09 456.48 210 456.11 208.73C455.74 207.46 455.56 206.07 455.56 204.54C455.56 203.01 455.75 201.62 456.14 200.35C456.52 199.08 457.06 197.99 457.75 197.08C458.45 196.17 459.29 195.46 460.26 194.96C461.23 194.45 462.3 194.2 463.47 194.2C464.64 194.2 465.64 194.43 466.52 194.89C467.4 195.35 468.18 195.98 468.84 196.77L468.12 198.03C468.07 198.12 468.01 198.2 467.94 198.27C467.87 198.33 467.78 198.36 467.66 198.36C467.53 198.36 467.36 198.27 467.16 198.09C466.96 197.9 466.71 197.69 466.39 197.47C466.07 197.24 465.68 197.04 465.21 196.86C464.74 196.67 464.15 196.58 463.46 196.58C462.63 196.58 461.86 196.76 461.17 197.13C460.48 197.49 459.88 198.01 459.38 198.7C458.88 199.39 458.5 200.22 458.22 201.21C457.94 202.2 457.8 203.31 457.8 204.55C457.8 205.79 457.94 206.93 458.23 207.92C458.52 208.91 458.92 209.74 459.42 210.43C459.92 211.11 460.51 211.62 461.19 211.98C461.87 212.34 462.61 212.52 463.4 212.52C463.88 212.52 464.31 212.49 464.7 212.42C465.09 212.35 465.45 212.23 465.77 212.08C466.1 211.93 466.41 211.74 466.68 211.52C466.97 211.28 467.25 211.01 467.53 210.69C467.66 210.55 467.79 210.48 467.91 210.48H467.9Z" fill="#0D0F1E"/>
<path d="M473.68 214.87H471.49V194.66H473.68V214.87Z" fill="#0D0F1E"/>
<path d="M491.46 200.4C491.08 199.13 490.54 198.04 489.84 197.13C489.14 196.21 488.29 195.5 487.31 194.99C486.33 194.48 485.25 194.23 484.06 194.23C482.87 194.23 481.79 194.48 480.81 194.99C479.83 195.49 478.99 196.21 478.29 197.13C477.59 198.04 477.05 199.13 476.67 200.4C476.28 201.66 476.09 203.05 476.09 204.56C476.09 206.07 476.29 207.46 476.67 208.73C477.05 209.99 477.59 211.08 478.29 211.99C478.99 212.9 479.83 213.61 480.81 214.12C481.79 214.62 482.87 214.87 484.06 214.87C485.25 214.87 486.33 214.62 487.31 214.12C488.3 213.61 489.14 212.9 489.84 211.99C490.54 211.08 491.08 209.99 491.46 208.73C491.85 207.46 492.04 206.07 492.04 204.56C492.04 203.05 491.84 201.66 491.46 200.4ZM489.39 207.9C489.12 208.88 488.74 209.71 488.24 210.4C487.75 211.08 487.15 211.6 486.44 211.97C485.73 212.33 484.94 212.51 484.07 212.51C483.2 212.51 482.42 212.33 481.71 211.97C481 211.6 480.39 211.08 479.89 210.4C479.39 209.71 479.01 208.88 478.74 207.9C478.47 206.91 478.33 205.8 478.33 204.56C478.33 203.32 478.47 202.21 478.74 201.22C479.01 200.23 479.39 199.4 479.89 198.72C480.4 198.03 481 197.51 481.71 197.14C482.42 196.77 483.2 196.59 484.07 196.59C484.94 196.59 485.73 196.77 486.44 197.14C487.14 197.51 487.74 198.03 488.24 198.72C488.74 199.4 489.12 200.23 489.39 201.22C489.66 202.2 489.8 203.32 489.8 204.56C489.8 205.8 489.66 206.91 489.39 207.9Z" fill="#0D0F1E"/>
<path d="M488.35 188.39L484.67 192.42C484.56 192.55 484.45 192.63 484.34 192.66C484.24 192.69 484.11 192.7 483.96 192.7H482.51L485.12 188.84C485.25 188.63 485.38 188.51 485.5 188.46C485.64 188.41 485.83 188.39 486.08 188.39H488.35Z" fill="#0D0F1E"/>
<path d="M507.54 194.66V214.87H506.45C506.28 214.87 506.13 214.83 506.01 214.76C505.9 214.68 505.78 214.56 505.67 214.38L496.32 199.15C496.33 199.39 496.35 199.61 496.35 199.84C496.35 200.07 496.36 200.28 496.36 200.47V214.87H494.44V194.66H495.57C495.67 194.66 495.75 194.66 495.82 194.69C495.89 194.69 495.95 194.72 496 194.76C496.05 194.79 496.11 194.83 496.16 194.9C496.21 194.96 496.27 195.03 496.33 195.13L505.68 210.34C505.66 210.1 505.65 209.86 505.63 209.63C505.63 209.39 505.63 209.17 505.63 208.97V194.66H507.55H507.54Z" fill="#0D0F1E"/>
<path d="M384.94 196.96H379.7V214.87H377.52V196.96H372.27V194.66H384.93V196.96H384.94Z" fill="#0D0F1E"/>
<path d="M389.54 214.87H387.35V194.66H389.54V214.87Z" fill="#0D0F1E"/>
<path d="M529.28 210.48C529.4 210.48 529.5 210.54 529.6 210.66L530.47 211.83C529.81 212.79 529 213.54 528.06 214.07C527.12 214.61 525.98 214.87 524.64 214.87C523.48 214.87 522.43 214.62 521.48 214.12C520.53 213.61 519.72 212.91 519.05 212C518.38 211.09 517.86 210 517.49 208.73C517.12 207.46 516.94 206.07 516.94 204.54C516.94 203.01 517.13 201.62 517.52 200.35C517.9 199.08 518.44 197.99 519.13 197.08C519.83 196.17 520.67 195.46 521.64 194.96C522.61 194.45 523.68 194.2 524.86 194.2C526.04 194.2 527.03 194.43 527.91 194.89C528.79 195.35 529.56 195.98 530.23 196.77L529.51 198.03C529.47 198.12 529.41 198.2 529.33 198.27C529.26 198.33 529.17 198.36 529.05 198.36C528.91 198.36 528.75 198.27 528.55 198.09C528.35 197.9 528.1 197.69 527.78 197.47C527.46 197.24 527.07 197.04 526.6 196.86C526.13 196.67 525.54 196.58 524.85 196.58C524.02 196.58 523.25 196.76 522.56 197.13C521.87 197.49 521.27 198.01 520.77 198.7C520.27 199.39 519.89 200.22 519.61 201.21C519.33 202.2 519.19 203.31 519.19 204.55C519.19 205.79 519.33 206.93 519.62 207.92C519.91 208.91 520.31 209.74 520.81 210.43C521.31 211.11 521.9 211.62 522.58 211.98C523.26 212.34 524 212.52 524.79 212.52C525.27 212.52 525.7 212.49 526.09 212.42C526.48 212.35 526.84 212.23 527.16 212.08C527.49 211.93 527.8 211.74 528.07 211.52C528.36 211.28 528.64 211.01 528.92 210.69C529.05 210.55 529.18 210.48 529.3 210.48H529.28Z" fill="#0D0F1E"/>
<path d="M547.13 204.56C547.13 206.07 546.94 207.46 546.55 208.73C546.17 209.99 545.63 211.08 544.93 211.99C544.23 212.9 543.39 213.61 542.4 214.12C541.42 214.62 540.34 214.87 539.15 214.87C537.96 214.87 536.88 214.62 535.9 214.12C534.92 213.61 534.08 212.9 533.38 211.99C532.68 211.08 532.14 209.99 531.76 208.73C531.38 207.46 531.18 206.07 531.18 204.56C531.18 203.05 531.37 201.66 531.76 200.4C532.14 199.13 532.68 198.04 533.38 197.13C534.08 196.21 534.92 195.49 535.9 194.99C536.88 194.48 537.96 194.23 539.15 194.23C540.34 194.23 541.42 194.48 542.4 194.99C543.38 195.5 544.23 196.21 544.93 197.13C545.63 198.04 546.17 199.13 546.55 200.4C546.93 201.66 547.13 203.05 547.13 204.56ZM544.89 204.56C544.89 203.32 544.75 202.2 544.48 201.22C544.21 200.24 543.82 199.4 543.33 198.72C542.83 198.03 542.23 197.51 541.53 197.14C540.82 196.77 540.03 196.59 539.16 196.59C538.29 196.59 537.51 196.77 536.8 197.14C536.09 197.51 535.49 198.03 534.98 198.72C534.48 199.4 534.1 200.23 533.83 201.22C533.56 202.21 533.42 203.32 533.42 204.56C533.42 205.8 533.56 206.91 533.83 207.9C534.1 208.88 534.48 209.71 534.98 210.4C535.48 211.08 536.09 211.6 536.8 211.97C537.51 212.33 538.29 212.51 539.16 212.51C540.03 212.51 540.82 212.33 541.53 211.97C542.24 211.6 542.84 211.08 543.33 210.4C543.83 209.71 544.21 208.88 544.48 207.9C544.75 206.91 544.89 205.8 544.89 204.56Z" fill="#0D0F1E"/>
<path d="M562.98 204.93V212.68C562.17 213.41 561.3 213.96 560.37 214.33C559.45 214.69 558.44 214.87 557.35 214.87C556.05 214.87 554.87 214.62 553.83 214.12C552.78 213.61 551.89 212.91 551.14 212C550.4 211.09 549.84 210 549.44 208.73C549.04 207.46 548.84 206.07 548.84 204.54C548.84 203.01 549.03 201.59 549.42 200.32C549.81 199.05 550.36 197.97 551.08 197.06C551.79 196.15 552.66 195.44 553.69 194.94C554.71 194.44 555.86 194.19 557.12 194.19C557.76 194.19 558.35 194.25 558.9 194.37C559.45 194.48 559.96 194.65 560.42 194.88C560.89 195.1 561.32 195.36 561.72 195.68C562.12 195.99 562.49 196.34 562.84 196.74L562.22 197.98C562.12 198.17 561.99 198.29 561.84 198.35C561.69 198.4 561.52 198.35 561.33 198.21C561.15 198.08 560.94 197.92 560.71 197.73C560.48 197.54 560.19 197.36 559.85 197.19C559.52 197.01 559.13 196.86 558.67 196.74C558.22 196.62 557.68 196.56 557.06 196.56C556.15 196.56 555.33 196.75 554.59 197.12C553.85 197.49 553.23 198.02 552.71 198.71C552.19 199.4 551.79 200.23 551.51 201.22C551.23 202.2 551.09 203.3 551.09 204.52C551.09 205.74 551.23 206.93 551.52 207.93C551.81 208.93 552.23 209.78 552.76 210.48C553.3 211.17 553.96 211.71 554.72 212.07C555.49 212.44 556.35 212.62 557.3 212.62C558.05 212.62 558.72 212.52 559.3 212.31C559.89 212.09 560.46 211.8 561.02 211.42V206.98H558.5C558.36 206.98 558.24 206.93 558.15 206.83C558.07 206.73 558.03 206.6 558.03 206.45V204.9H562.99V204.93H562.98Z" fill="#0D0F1E"/>
<path d="M578.79 194.66V214.87H577.7C577.53 214.87 577.38 214.83 577.26 214.76C577.15 214.68 577.04 214.56 576.92 214.38L567.57 199.15C567.59 199.39 567.6 199.61 567.6 199.84C567.6 200.07 567.6 200.28 567.6 200.47V214.87H565.68V194.66H566.81C566.91 194.66 566.99 194.66 567.06 194.69C567.13 194.69 567.19 194.72 567.24 194.76C567.29 194.79 567.35 194.83 567.4 194.9C567.45 194.96 567.51 195.03 567.57 195.13L576.92 210.34C576.91 210.1 576.89 209.86 576.88 209.63C576.88 209.39 576.87 209.17 576.87 208.97V194.66H578.79Z" fill="#0D0F1E"/>
<path d="M583.7 214.87H581.51V194.66H583.7V214.87Z" fill="#0D0F1E"/>
<path d="M598.58 196.96H593.34V214.87H591.16V196.96H585.91V194.66H598.57V196.96H598.58Z" fill="#0D0F1E"/>
<path d="M602.98 214.87H600.79V194.66H602.98V214.87Z" fill="#0D0F1E"/>
<path d="M620.82 194.66L614.23 214.87H612.27L605.68 194.66H607.43C607.63 194.66 607.78 194.72 607.9 194.84C608.02 194.96 608.11 195.12 608.17 195.31L612.73 209.57C612.83 209.89 612.92 210.24 613.01 210.61C613.11 210.99 613.19 211.38 613.27 211.79C613.34 211.38 613.42 210.98 613.51 210.61C613.59 210.23 613.68 209.89 613.78 209.57L618.33 195.31C618.38 195.15 618.46 195 618.59 194.87C618.73 194.73 618.89 194.66 619.07 194.66H620.82Z" fill="#0D0F1E"/>
<path d="M628.1 207.36L625.56 199.14C625.49 198.9 625.41 198.61 625.32 198.29C625.24 197.96 625.16 197.61 625.08 197.25C624.92 198.01 624.76 198.65 624.6 199.15L622.06 207.36H628.1ZM632.66 214.86H630.97C630.77 214.86 630.62 214.8 630.5 214.68C630.38 214.56 630.29 214.4 630.23 214.22L628.72 209.34H621.46L619.95 214.22C619.9 214.39 619.82 214.54 619.69 214.67C619.56 214.8 619.4 214.87 619.22 214.87H617.53L624 194.66H626.21L632.68 214.87H632.66V214.86Z" fill="#0D0F1E"/>
<path fill-rule="evenodd" clip-rule="evenodd" d="M646 0H1C0.44 0 0 0.45 0 1V43.31C0 43.73 0.27 44.11 0.67 44.25C1.07 44.39 1.51 44.25 1.78 43.93L3.66 41.58C3.8 41.4 3.88 41.18 3.88 40.96V4.35H643.12V204.47H638.48C637.92 204.47 637.48 204.91 637.48 205.47V207.82C637.48 208.37 637.92 208.82 638.48 208.82H646C646.55 208.82 647 208.37 647 207.82V1C647 0.45 646.55 0 646 0ZM639.48 206.47H644.12C644.5 206.47 644.83 206.26 645 205.94V206.82H639.48V206.47Z" fill="#FFCF43"/>
<path fill-rule="evenodd" clip-rule="evenodd" d="M645 205.94V206.82H639.48V206.47H644.12C644.5 206.47 644.83 206.26 645 205.94Z" fill="#0D0F1E"/>
</g>
<defs>
<clipPath id="clip0_786_2">
<rect width="647" height="214.87" fill="white"/>
</clipPath>
</defs>
</svg>
