<svg width="160" height="160" viewBox="0 0 160 160" fill="none" xmlns="http://www.w3.org/2000/svg">
<path d="M51.9997 13.3335H108C129.333 13.3335 146.666 30.6668 146.666 52.0002V108C146.666 118.255 142.593 128.09 135.341 135.342C128.09 142.593 118.255 146.667 108 146.667H51.9997C30.6663 146.667 13.333 129.333 13.333 108V52.0002C13.333 41.7451 17.4068 31.9101 24.6582 24.6587C31.9096 17.4073 41.7446 13.3335 51.9997 13.3335ZM50.6663 26.6668C44.3011 26.6668 38.1967 29.1954 33.6958 33.6963C29.1949 38.1971 26.6663 44.3016 26.6663 50.6668V109.333C26.6663 122.6 37.3997 133.333 50.6663 133.333H109.333C115.698 133.333 121.803 130.805 126.304 126.304C130.804 121.803 133.333 115.699 133.333 109.333V50.6668C133.333 37.4002 122.6 26.6668 109.333 26.6668H50.6663ZM115 36.6668C117.21 36.6668 119.329 37.5448 120.892 39.1076C122.455 40.6704 123.333 42.79 123.333 45.0002C123.333 47.2103 122.455 49.3299 120.892 50.8927C119.329 52.4555 117.21 53.3335 115 53.3335C112.79 53.3335 110.67 52.4555 109.107 50.8927C107.544 49.3299 106.666 47.2103 106.666 45.0002C106.666 42.79 107.544 40.6704 109.107 39.1076C110.67 37.5448 112.79 36.6668 115 36.6668ZM79.9997 46.6668C88.8402 46.6668 97.3187 50.1787 103.57 56.4299C109.821 62.6811 113.333 71.1596 113.333 80.0002C113.333 88.8407 109.821 97.3192 103.57 103.57C97.3187 109.822 88.8402 113.333 79.9997 113.333C71.1591 113.333 62.6807 109.822 56.4294 103.57C50.1782 97.3192 46.6663 88.8407 46.6663 80.0002C46.6663 71.1596 50.1782 62.6811 56.4294 56.4299C62.6807 50.1787 71.1591 46.6668 79.9997 46.6668ZM79.9997 60.0002C74.6953 60.0002 69.6083 62.1073 65.8575 65.858C62.1068 69.6088 59.9997 74.6958 59.9997 80.0002C59.9997 85.3045 62.1068 90.3916 65.8575 94.1423C69.6083 97.893 74.6953 100 79.9997 100C85.304 100 90.3911 97.893 94.1418 94.1423C97.8925 90.3916 99.9997 85.3045 99.9997 80.0002C99.9997 74.6958 97.8925 69.6088 94.1418 65.858C90.3911 62.1073 85.304 60.0002 79.9997 60.0002Z" fill="black"/>
</svg>
