<svg width="160" height="160" viewBox="0 0 160 160" fill="none" xmlns="http://www.w3.org/2000/svg">
<path d="M126.667 20C130.203 20 133.594 21.4048 136.095 23.9052C138.595 26.4057 140 29.7971 140 33.3333V126.667C140 130.203 138.595 133.594 136.095 136.095C133.594 138.595 130.203 140 126.667 140H33.3333C29.7971 140 26.4057 138.595 23.9052 136.095C21.4048 133.594 20 130.203 20 126.667V33.3333C20 29.7971 21.4048 26.4057 23.9052 23.9052C26.4057 21.4048 29.7971 20 33.3333 20H126.667ZM123.333 123.333V88C123.333 82.236 121.044 76.708 116.968 72.6322C112.892 68.5564 107.364 66.2667 101.6 66.2667C95.9333 66.2667 89.3333 69.7333 86.1333 74.9333V67.5333H67.5333V123.333H86.1333V90.4667C86.1333 85.3333 90.2667 81.1333 95.4 81.1333C97.8754 81.1333 100.249 82.1167 102 83.867C103.75 85.6173 104.733 87.9913 104.733 90.4667V123.333H123.333ZM45.8667 57.0667C48.8371 57.0667 51.6859 55.8867 53.7863 53.7863C55.8867 51.6859 57.0667 48.8371 57.0667 45.8667C57.0667 39.6667 52.0667 34.6 45.8667 34.6C42.8786 34.6 40.0128 35.787 37.8999 37.8999C35.787 40.0128 34.6 42.8786 34.6 45.8667C34.6 52.0667 39.6667 57.0667 45.8667 57.0667ZM55.1333 123.333V67.5333H36.6667V123.333H55.1333Z" fill="black"/>
</svg>
