<svg width="160" height="160" viewBox="0 0 160 160" fill="none" xmlns="http://www.w3.org/2000/svg">
<path d="M149.733 39.9998C144.6 42.3332 139.067 43.8665 133.333 44.5998C139.2 41.0665 143.733 35.4665 145.867 28.7332C140.333 32.0665 134.2 34.3998 127.733 35.7332C122.467 29.9998 115.067 26.6665 106.667 26.6665C90.9999 26.6665 78.1999 39.4665 78.1999 55.2665C78.1999 57.5332 78.4666 59.7332 78.9333 61.7998C55.1999 60.5998 34.0666 49.1998 19.9999 31.9332C17.5333 36.1332 16.1333 41.0665 16.1333 46.2665C16.1333 56.1998 21.1333 64.9998 28.8666 69.9998C24.1333 69.9998 19.7333 68.6665 15.8666 66.6665C15.8666 66.6665 15.8666 66.6665 15.8666 66.8665C15.8666 80.7332 25.7333 92.3332 38.7999 94.9332C36.3999 95.5998 33.8666 95.9332 31.2666 95.9332C29.4666 95.9332 27.6666 95.7332 25.9333 95.3998C29.5333 106.667 39.9999 115.067 52.5999 115.267C42.8666 123 30.5333 127.533 17.0666 127.533C14.7999 127.533 12.5333 127.4 10.2666 127.133C22.9333 135.267 37.9999 140 54.1333 140C106.667 140 135.533 96.3998 135.533 58.5998C135.533 57.3332 135.533 56.1332 135.467 54.8665C141.067 50.8665 145.867 45.7998 149.733 39.9998Z" fill="black"/>
</svg>
