<svg width="160" height="160" viewBox="0 0 160 160" fill="none" xmlns="http://www.w3.org/2000/svg">
<path d="M80.267 13.3335C43.867 13.3335 14.2003 43.0002 14.2003 79.4002C14.2003 91.0668 17.267 102.4 23.0003 112.4L13.667 146.667L48.667 137.467C58.3337 142.733 69.2003 145.533 80.267 145.533C116.667 145.533 146.334 115.867 146.334 79.4668C146.334 61.8002 139.467 45.2002 127 32.7335C114.534 20.2002 97.9337 13.3335 80.267 13.3335ZM80.3337 24.4668C95.0003 24.4668 108.734 30.2002 119.134 40.6002C129.467 51.0002 135.2 64.8002 135.2 79.4668C135.2 109.733 110.534 134.333 80.267 134.333C70.4003 134.333 60.7337 131.733 52.3337 126.667L50.3337 125.533L29.5337 131L35.067 110.733L33.7337 108.6C28.267 100 25.3337 89.8002 25.3337 79.4002C25.4003 49.1335 50.0003 24.4668 80.3337 24.4668ZM56.867 48.8668C55.8003 48.8668 54.0003 49.2668 52.467 50.9335C51.0003 52.6002 46.667 56.6668 46.667 64.7335C46.667 72.8668 52.6003 80.6668 53.3337 81.8002C54.267 82.9335 65.067 99.6002 81.667 106.667C85.6003 108.467 88.667 109.467 91.067 110.2C95.0003 111.467 98.6003 111.267 101.467 110.867C104.667 110.4 111.2 106.867 112.6 103C114 99.1335 114 95.8668 113.6 95.1335C113.134 94.4668 112.067 94.0668 110.4 93.3335C108.734 92.4002 100.6 88.4002 99.1337 87.8668C97.6003 87.3335 96.667 87.0668 95.4003 88.6668C94.3337 90.3335 91.1337 94.0668 90.2003 95.1335C89.2003 96.2668 88.267 96.4002 86.667 95.6002C84.9337 94.7335 79.6003 93.0002 73.3337 87.4002C68.4003 83.0002 65.1337 77.6002 64.1337 75.9335C63.3337 74.3335 64.067 73.3335 64.867 72.6002C65.6003 71.8668 66.667 70.6668 67.3337 69.6668C68.2003 68.7335 68.467 68.0002 69.0003 66.9335C69.5337 65.8002 69.267 64.8668 68.867 64.0668C68.467 63.3335 65.1337 55.0668 63.7337 51.8002C62.4003 48.6002 61.067 49.0002 60.0003 48.9335C59.067 48.9335 58.0003 48.8668 56.867 48.8668Z" fill="black"/>
</svg>
